<?xml version="1.0" encoding="utf-8"?>
<!-- Generator: Adobe Illustrator 28.1.0, SVG Export Plug-In . SVG Version: 6.00 Build 0)  -->
<svg version="1.1" id="Livello_1" xmlns="http://www.w3.org/2000/svg" xmlns:xlink="http://www.w3.org/1999/xlink" x="0px" y="0px"
	 viewBox="0 0 324.57 90.59" style="enable-background:new 0 0 324.57 90.59;" xml:space="preserve">
<style type="text/css">
	.st0{fill:#171F38;}
	.st1{fill:#5FB55F;}
</style>
<g>
	<g>
		<path class="st0" d="M324.57,44.85c-0.2,1.38-0.34,2.78-0.59,4.15c-1,5.49-3.29,10.36-7.2,14.38c-2.93,3.01-6.43,5.21-10.34,6.74
			c-4.59,1.79-9.37,2.8-14.26,3.28c-1.7,0.17-3.4,0.22-5.11,0.22c-10.3-0.01-20.6-0.01-30.91,0.01c-0.69,0-1.01-0.21-1.2-0.86
			c-0.48-1.59-1.05-3.16-1.56-4.74c-0.14-0.44-0.36-0.6-0.83-0.6c-5.79,0.01-11.58,0.01-17.37-0.01c-0.56,0-0.85,0.18-1.02,0.72
			c-0.51,1.61-1.07,3.19-1.58,4.8c-0.16,0.51-0.44,0.69-0.97,0.69c-6.08-0.01-12.15-0.01-18.23-0.01c-0.8,0-0.84-0.05-0.57-0.78
			c1-2.75,2-5.49,3.01-8.24c0.07-0.19,0.12-0.38,0.21-0.66c-0.51,0.18-0.82,0.48-1.12,0.78c-1.97,1.92-4.11,3.62-6.48,5.03
			c-4.24,2.51-8.79,4.06-13.72,4.5c-4.89,0.44-9.66-0.08-14.27-1.78c-5-1.84-9.37-4.67-12.97-8.61c-4.38-4.78-7.15-10.35-8.25-16.75
			c-0.03-0.2-0.08-0.39-0.13-0.59c-0.22-0.04-0.24,0.14-0.3,0.25c-1.2,1.97-2.74,3.63-4.54,5.04c-0.42,0.33-0.49,0.59-0.21,1.06
			c4.53,7.79,9.03,15.6,13.55,23.39c0.19,0.33,0.28,0.64,0.18,1.04c-1.07,4.21-2.12,8.42-3.18,12.64c-0.19,0.76-0.19,0.75-0.94,0.56
			c-4.23-1.07-8.47-2.14-12.7-3.2c-0.37-0.09-0.61-0.26-0.8-0.58c-2.85-4.85-5.71-9.69-8.56-14.53c-2.88-4.9-5.77-9.79-8.78-14.68
			c0,0.2,0,0.41,0,0.61c0,4.87,0,9.74,0,14.62c0,0.88,0,0.88-0.88,0.88c-6.18,0-12.35,0-18.53,0c-0.87,0-0.87,0-0.87-0.89
			c0-20.48,0-40.97,0-61.45c0-0.91,0-0.91,0.9-0.91c7.31,0,14.63-0.05,21.94,0.03c4.93,0.05,9.69,1.07,14.12,3.29
			c6.09,3.06,10.09,7.86,11.81,14.48c0.03,0.1,0.05,0.19,0.12,0.44c3.59-7.9,9.23-13.64,17.1-17.05c7.89-3.42,16.05-3.85,24.06-0.78
			c13.9,5.33,20.92,15.82,21.96,30.41c0.24-0.62,0.54-1.4,0.84-2.18c3.51-9.24,7.01-18.48,10.52-27.72
			c0.35-0.92,0.34-0.92,1.34-0.92c4.43,0,8.86,0.01,13.29-0.01c0.6,0,0.9,0.18,1.12,0.75c3.33,8.68,6.68,17.35,10.03,26.02
			c2.85,7.38,5.71,14.77,8.57,22.15c0.06,0.16,0.08,0.36,0.3,0.49c0-0.46,0-0.88,0-1.3c0-15.65,0-31.3,0-46.95c0-0.06,0-0.12,0-0.18
			c0-0.95,0-0.95,0.93-0.95c6.16,0,12.32-0.09,18.47,0.04c6.23,0.13,12.34,1.09,18.1,3.64c6.57,2.91,11.44,7.54,14.2,14.26
			c1.29,3.15,1.98,6.43,2.23,9.81c0.01,0.18,0.06,0.36,0.09,0.54C324.57,40.71,324.57,42.78,324.57,44.85z M191.53,54.59
			c7.24,0,13.01-5.76,13.07-12.95c0.06-7.33-6.22-13.05-13.01-13.03c-6.84,0.02-13.03,5.59-13.05,13.01
			C178.53,48.75,184.38,54.59,191.53,54.59z M290.82,41.62c0,4.2,0.01,8.4-0.01,12.6c0,0.56,0.17,0.75,0.73,0.72
			c1.63-0.09,3.23-0.3,4.8-0.75c4.44-1.28,7.42-4.01,8.35-8.65c0.6-2.94,0.57-5.89-0.2-8.8c-0.78-2.93-2.53-5.13-5.23-6.56
			c-2.31-1.22-4.79-1.74-7.37-1.87c-1.07-0.05-1.07-0.03-1.07,1.02C290.82,33.43,290.82,37.53,290.82,41.62z M132.8,33.9
			c0,2.05,0,4.09,0,6.14c0,0.35,0.01,0.64,0.49,0.65c1.89,0.04,3.73-0.16,5.46-0.98c1.52-0.71,2.52-1.85,2.96-3.49
			c0.32-1.18,0.3-2.38,0.15-3.56c-0.21-1.69-1.04-3.04-2.55-3.94c-1.79-1.07-3.74-1.5-5.81-1.53c-0.58-0.01-0.73,0.21-0.72,0.75
			C132.82,29.93,132.8,31.92,132.8,33.9z M243.82,42.79c-0.13,0.24-0.18,0.32-0.22,0.41c-1.24,3.2-2.47,6.4-3.71,9.6
			c-0.19,0.49,0.02,0.55,0.43,0.55c2.3-0.01,4.59,0,6.89-0.01c0.65,0,0.67-0.04,0.43-0.66c-0.93-2.42-1.86-4.85-2.79-7.27
			C244.53,44.58,244.2,43.76,243.82,42.79z"/>
	</g>
	<g>
		<path class="st1" d="M0,71.06V11.24c0-0.51,0.41-0.92,0.92-0.92h30.2c4.52,0,8.34,0.65,11.45,1.94c3.11,1.29,5.43,3.07,6.96,5.33
			c1.53,2.26,2.29,4.83,2.29,7.71c0,3.17-0.98,5.84-2.95,8.02c-1.97,2.17-4.2,3.84-6.18,4.76v0.88c2.99,0.67,5.39,2.41,7.77,4.93
			c2.38,2.53,3.57,5.87,3.57,10.04c0,3.47-0.91,6.56-2.73,9.29c-1.82,2.73-4.54,4.88-8.15,6.43c-3.61,1.56-8.06,2.33-13.35,2.33
			H0.92C0.41,71.99,0,71.57,0,71.06z M26.07,31.67c1.7,0,2.94-0.32,3.7-0.97c0.76-0.65,1.15-1.64,1.15-3c0-1.35-0.38-2.35-1.15-3
			c-0.76-0.65-2-0.97-3.7-0.97h-3.12c-0.51,0-0.92,0.41-0.92,0.92v6.08c0,0.51,0.41,0.92,0.92,0.92H26.07z M27.83,56.57
			c1.29,0,2.36-0.19,3.22-0.57c0.85-0.38,1.48-0.92,1.89-1.63c0.41-0.7,0.62-1.59,0.62-2.64c0-1.06-0.21-1.94-0.62-2.64
			c-0.41-0.7-1.04-1.25-1.89-1.63c-0.85-0.38-1.92-0.57-3.22-0.57h-4.89c-0.51,0-0.92,0.41-0.92,0.92v7.84
			c0,0.51,0.41,0.92,0.92,0.92H27.83z"/>
		<path class="st1" d="M80.63,73.75c-6.1,0-11.36-1.13-15.77-3.39c-4.41-2.26-7.76-5.45-10.04-9.56c-2.29-4.11-3.43-8.9-3.43-14.36
			V11.07c0-0.41,0.34-0.75,0.75-0.75h19.69c0.41,0,0.75,0.34,0.75,0.75v34.49c0,2.82,0.71,4.99,2.12,6.52
			c1.41,1.53,3.39,2.29,5.93,2.29c2.54,0,4.52-0.76,5.93-2.29c1.41-1.53,2.12-3.7,2.12-6.52V10.85c0-0.34,0.14-0.67,0.38-0.91
			l9.86-9.83c0.15-0.15,0.4-0.15,0.55,0l10.02,9.83c0.24,0.24,0.38,0.57,0.38,0.91v35.59c0,5.46-1.14,10.25-3.43,14.36
			c-2.29,4.11-5.64,7.3-10.04,9.56C91.99,72.62,86.73,73.75,80.63,73.75z"/>
	</g>
</g>
</svg>
