<?xml version="1.0" encoding="utf-8"?>
<!-- Generator: Adobe Illustrator 28.1.0, SVG Export Plug-In . SVG Version: 6.00 Build 0)  -->
<svg version="1.1" id="Livello_1" xmlns="http://www.w3.org/2000/svg" xmlns:xlink="http://www.w3.org/1999/xlink" x="0px" y="0px"
	 viewBox="0 0 105.47 80.27" style="enable-background:new 0 0 105.47 80.27;" xml:space="preserve">
<style type="text/css">
	.st0{fill:#171F38;}
	.st1{fill:#5FB55F;}
</style>
<g>
	<g>
		<path class="st0" d="M96.45,36.44c-1.2,1.97-2.74,3.63-4.54,5.04c-0.42,0.33-0.49,0.59-0.21,1.06c4.53,7.79,9.03,15.6,13.55,23.39
			c0.19,0.33,0.28,0.64,0.18,1.04c-1.07,4.21-2.12,8.42-3.18,12.64c-0.19,0.76-0.19,0.75-0.94,0.56c-4.23-1.07-8.47-2.14-12.7-3.2
			c-0.37-0.09-0.61-0.26-0.8-0.58c-2.85-4.85-5.71-9.69-8.56-14.53c-2.88-4.9-5.77-9.79-8.78-14.68c0,0.2,0,0.41,0,0.61
			c0,4.87,0,9.74,0,14.62c0,0.88,0,0.88-0.88,0.88c-6.18,0-12.35,0-18.53,0c-0.87,0-0.87,0-0.87-0.89c0-20.48,0-40.96,0-61.45
			c0-0.91,0-0.92,0.9-0.91c7.31,0,14.63-0.05,21.94,0.03c4.93,0.05,9.69,1.07,14.12,3.29c6.09,3.06,10.09,7.86,11.81,14.48
			c0.4,2.28,0.72,5.63,0.16,9.62C98.6,31.32,97.43,34.38,96.45,36.44z M70.47,23.58c0,2.05,0,4.09,0,6.14
			c0,0.35,0.01,0.64,0.49,0.65c1.89,0.04,3.73-0.16,5.46-0.98c1.52-0.71,2.52-1.85,2.96-3.49c0.32-1.18,0.3-2.38,0.15-3.56
			c-0.21-1.69-1.04-3.04-2.55-3.94c-1.79-1.07-3.74-1.5-5.81-1.53c-0.58-0.01-0.73,0.21-0.72,0.75
			C70.49,19.61,70.47,21.6,70.47,23.58z"/>
	</g>
	<g>
		<path class="st1" d="M0,60.75V0.92C0,0.41,0.41,0,0.92,0h30.2c4.52,0,8.34,0.65,11.45,1.94c3.11,1.29,5.43,3.07,6.96,5.33
			c1.53,2.26,2.29,4.83,2.29,7.71c0,3.17-0.98,5.84-2.95,8.02c-1.97,2.17-4.2,3.84-6.18,4.76v0.88c2.99,0.67,5.39,2.41,7.77,4.93
			c2.38,2.53,3.57,5.87,3.57,10.04c0,3.47-0.91,6.56-2.73,9.29c-1.82,2.73-4.54,4.88-8.15,6.43c-3.61,1.56-8.06,2.33-13.35,2.33
			H0.92C0.41,61.67,0,61.26,0,60.75z M26.07,21.35c1.7,0,2.94-0.32,3.7-0.97c0.76-0.65,1.15-1.64,1.15-3c0-1.35-0.38-2.35-1.15-3
			c-0.76-0.65-2-0.97-3.7-0.97h-3.12c-0.51,0-0.92,0.41-0.92,0.92v6.08c0,0.51,0.41,0.92,0.92,0.92H26.07z M27.83,46.25
			c1.29,0,2.36-0.19,3.22-0.57c0.85-0.38,1.48-0.92,1.89-1.63c0.41-0.7,0.62-1.59,0.62-2.64c0-1.06-0.21-1.94-0.62-2.64
			c-0.41-0.7-1.04-1.25-1.89-1.63c-0.85-0.38-1.92-0.57-3.22-0.57h-4.89c-0.51,0-0.92,0.41-0.92,0.92v7.84
			c0,0.51,0.41,0.92,0.92,0.92H27.83z"/>
	</g>
</g>
</svg>
